<svg width="32" height="32" viewBox="0 0 32 32" fill="none" xmlns="http://www.w3.org/2000/svg">
  <rect width="32" height="32" rx="7" fill="#2563EB"/>
  <path
    d="M9.5 10.2C9.5 9.537 10.037 9 10.7 9h7.8c1.49 0 2.7 1.21 2.7 2.7v10.7c0 .442-.358.8-.8.8H12.2c-1.49 0-2.7-1.21-2.7-2.7V10.2Z"
    fill="white"
    opacity="0.95"
  />
  <path
    d="M21.3 9h0.9c.663 0 1.2.537 1.2 1.2v11.3c0 1.49-1.21 2.7-2.7 2.7h-8.5c-.442 0-.8-.358-.8-.8v-0.9h9.3c1.048 0 1.9-.852 1.9-1.9V9Z"
    fill="white"
    opacity="0.75"
  />
  <path d="M12.1 12.2h7.4" stroke="#2563EB" stroke-width="1.6" stroke-linecap="round" opacity="0.25"/>
  <path d="M12.1 14.9h7.4" stroke="#2563EB" stroke-width="1.6" stroke-linecap="round" opacity="0.25"/>
  <path d="M12.1 17.6h5.8" stroke="#2563EB" stroke-width="1.6" stroke-linecap="round" opacity="0.25"/>
</svg>
